M48
; DRILL file KiCad 10.0.0 date 2026-05-27T21:38:10
; FORMAT={-:-/ absolute / metric / decimal}
; #@! TF.CreationDate,2026-05-27T21:38:10-07:00
; #@! TF.GenerationSoftware,Kicad,Pcbnew,10.0.0
; #@! TF.FileFunction,Plated,1,4,PTH
FMAT,2
METRIC
; #@! TA.AperFunction,Plated,PTH,ViaDrill
T1C0.300
; #@! TA.AperFunction,Plated,PTH,ViaDrill
T2C0.500
; #@! TA.AperFunction,Plated,PTH,ViaDrill
T3C0.600
; #@! TA.AperFunction,Plated,PTH,ComponentDrill
T4C0.950
; #@! TA.AperFunction,Plated,PTH,ComponentDrill
T5C1.000
; #@! TA.AperFunction,Plated,PTH,ComponentDrill
T6C1.200
; #@! TA.AperFunction,Plated,PTH,ComponentDrill
T7C1.850
%
G90
G05
T1
X114.43Y-75.066
X116.08Y-74.466
X119.38Y-75.666
X124.562Y-90.526
X125.23Y-75.416
X130.505Y-85.598
X136.449Y-96.723
X157.405Y-87.426
X157.533Y-90.099
X163.95Y-78.821
X164.314Y-87.934
X172.239Y-86.664
X172.848Y-84.479
X175.0Y-80.009
X175.559Y-78.059
X176.124Y-72.492
X176.15Y-86.359
X178.156Y-90.018
X180.34Y-85.446
X180.899Y-69.952
X182.27Y-72.492
X182.27Y-89.865
X189.484Y-73.101
T2
X112.842Y-74.91
X113.655Y-78.974
X115.179Y-67.086
X115.33Y-80.566
X117.719Y-89.388
X121.28Y-89.416
X123.03Y-88.366
X124.577Y-77.399
X128.488Y-79.634
X128.58Y-75.066
X130.063Y-78.72
X133.25Y-76.51
X134.076Y-94.163
X135.382Y-88.392
X137.154Y-91.115
X137.257Y-74.407
X138.914Y-84.073
X150.293Y-97.484
X152.199Y-97.465
X168.065Y-79.787
X169.589Y-73.691
X175.006Y-58.064
X175.431Y-76.281
T3
X136.389Y-85.357
X138.56Y-66.373
X142.509Y-101.326
X144.469Y-80.904
X151.402Y-79.685
X151.886Y-87.051
X152.242Y-89.591
X155.263Y-71.354
X156.533Y-67.696
X158.514Y-80.65
X159.819Y-101.713
X162.07Y-62.413
X164.404Y-94.976
X164.506Y-92.436
X170.3Y-69.525
X178.2Y-62.311
T4
X166.135Y-99.446
X168.635Y-99.446
X171.135Y-99.446
X173.635Y-99.446
X176.135Y-99.446
T5
X125.415Y-96.906
X127.955Y-96.906
X130.495Y-96.906
X133.035Y-96.906
X167.045Y-91.826
X169.545Y-91.826
X172.045Y-91.826
X174.545Y-91.826
T6
X136.845Y-98.811
X139.385Y-98.811
X143.83Y-98.811
X146.37Y-98.811
X174.625Y-55.88
X177.165Y-55.88
X182.245Y-88.265
X184.785Y-88.265
T7
X179.45Y-80.01
X184.15Y-80.01
X188.85Y-80.01
M30
